<?xml version="1.0" encoding="utf-8"?>
<!-- Generator: Adobe Illustrator 25.4.1, SVG Export Plug-In . SVG Version: 6.00 Build 0)  -->
<svg version="1.1" id="Layer_1" xmlns="http://www.w3.org/2000/svg" xmlns:xlink="http://www.w3.org/1999/xlink" x="0px" y="0px"
	 viewBox="0 0 355.1 244.5" style="enable-background:new 0 0 355.1 244.5;" xml:space="preserve">
<style type="text/css">
	.st0{fill:#FEFEFE;}
	.st1{fill:#9E242E;}
	.st2{fill:#FF912E;}
	.st3{fill:#F41CB2;}
	.st4{fill:#F25511;}
</style>
<g>
	<path class="st0" d="M74.6,21.8C81.6,13.4,89.2,4.4,100,1c12.1-3.2,22.4,6.3,30,14.4c19.9,22.8,34.4,49.7,47.9,76.7
		c7.3-16.4,16.4-32,25.8-47.2c9-13.8,18.3-27.8,31.3-38.3c6-4.6,14.3-9,21.8-5.1c10.6,5.6,18.6,14.9,26.1,24
		c15.9,20.5,28.4,43.4,39.7,66.7c14.1,30,26.3,61.3,31.4,94.2c1.5,15.2,2.9,32.3-6.3,45.6c-7.1,10.4-20.6,14-32.6,11.9
		c-10.4-3.7-19.5-10.5-26.3-19.1c-16.2-20-25.8-44.2-34.7-68.1c-1.3-4.2-2.9-8.3-4.3-12.4c-0.9,4.2-2.1,8.4-3.5,12.5
		c-9.1,24.2-18.8,48.9-35.5,69c-6.7,8.2-15.5,14.5-25.5,18.1c-14.4,3-28.3-4.5-37.6-15.1c-18.2-19.8-28.3-45.4-37.6-70.3
		c-1.8-5.1-3.6-10.2-4.9-15.5c-1.5,5.3-3.3,10.6-5.2,15.7c-8.4,22.9-18,46-33.2,65.3c-8.3,9.9-19.1,19.6-32.6,20.3
		c-12.5,1.1-24.6-7-29.4-18.4c-6.8-15.8-4.8-33.6-1.8-50.1c6.5-31.5,18.5-61.6,32.7-90.3C46.6,63.2,59,41.4,74.6,21.8 M81.7,28.8
		C66.3,48.4,54,70.4,43,92.7c-13.7,28.9-26.1,59-31.4,90.7c-1.9,8.8-1.9,17.9-1,26.8c1.1,8.4,4.4,17.4,12.1,21.7
		c7.4,4.3,16.9,2.6,23.6-2.2c12-8.4,20-21.2,26.9-33.9c14.8-28.3,24.5-59,31.8-89.9c7.8,31.7,17.6,63.3,33.2,92.2
		c6.2,10.7,12.7,21.8,22.8,29.2c5.1,4.6,11.8,7.8,18.8,7c7.8-0.8,14.3-5.8,19.8-11.1c9.3-9.6,16.1-21.4,22.1-33.2
		c12.8-26.2,21.6-54.2,28.5-82.4c8.6,34.2,19.3,68.5,37.7,98.9c6.9,10.6,15,21.6,27.1,26.6c8.5,3.5,19.3,0.4,24.2-7.5
		c5.9-9.5,6.4-21.3,5.5-32.1c-1.2-17.5-6.3-34.5-11.9-51.1c-11.2-32-25.9-62.8-43.8-91.5c-8.3-12.8-16.9-25.7-28.5-35.9
		c-4.1-3.6-10.2-7.1-15.4-3.5c-10,6.1-16.9,15.8-23.9,25c-17,24.2-31,50.6-42.5,77.8c-0.3,0.4-1.1,1.2-1.4,1.6c-1-3.1-2-6.1-3.3-9.1
		c-11.8-25.5-24.9-50.6-41.6-73.2c-5.7-7.5-11.6-15.1-19.3-20.6c-3.3-2.3-7.7-4.4-11.6-2.4C93.2,14.4,87.4,21.9,81.7,28.8"/>
	<path class="st1" d="M81.7,28.8c5.7-6.9,11.6-14.3,19.9-18.1c3.9-2,8.3,0,11.6,2.4c7.7,5.5,13.6,13.2,19.3,20.6
		c16.6,22.7,29.8,47.7,41.6,73.2c1.4,2.9,2.4,6,3.3,9.1C162,89.9,148,62.8,128.8,39.2c-5.6-6.6-11.5-13.6-19.6-17.1
		c-4.6-2-9.3,0.6-13.1,3.1C82.3,36.8,72.1,51.9,62.5,66.9c-22.6,36-39.6,75.5-50.8,116.5c5.3-31.7,17.6-61.8,31.4-90.7
		C54,70.4,66.3,48.4,81.7,28.8"/>
	<path class="st1" d="M245.1,11.4c5.2-3.6,11.3-0.1,15.4,3.5c11.6,10.1,20.2,23,28.5,35.9c17.9,28.8,32.7,59.5,43.8,91.5
		c5.6,16.6,10.7,33.5,11.9,51.1c-1.9-12.2-5.1-24.2-9.2-35.8c-10.6-31.9-25.3-62.5-43.1-91c-7.8-12.2-16.1-24.3-26.1-34.7
		c-4-4-8.3-8.2-13.8-10c-4.3-1.3-8.2,1.7-11.7,3.8c-9.3,7.3-16.5,16.7-23.4,26.2c-12.2,17.3-23.1,35.5-32.9,54.2
		c-1.6,3-3.6,5.8-5.8,8.3c11.5-27.3,25.5-53.6,42.5-77.8C228.2,27.3,235.2,17.5,245.1,11.4"/>
	<path class="st2" d="M96.1,25.2c3.8-2.5,8.5-5.1,13.1-3.1c8.1,3.5,14,10.5,19.6,17.1C148,62.8,162,89.9,177.3,116
		c-9.6,27.3-21,54.7-21.7,84c-0.5,9.4,2,18.6,5.5,27.3c-10.1-7.4-16.7-18.5-22.8-29.2c-15.5-28.9-25.4-60.4-33.2-92.2
		C99.5,79.5,94.3,52.5,96.1,25.2"/>
	<path class="st3" d="M240.9,25.6c3.5-2.1,7.4-5.1,11.7-3.8c5.5,1.8,9.8,6,13.8,10c10,10.5,18.3,22.5,26.1,34.7
		c17.8,28.5,32.5,59.1,43.1,91c4.2,11.6,7.3,23.6,9.2,35.8c0.9,10.8,0.4,22.6-5.5,32.1c-4.9,8-15.6,11-24.2,7.5
		c-12.1-4.9-20.2-16-27.1-26.6c-18.4-30.3-29.1-64.6-37.7-98.9C244.5,80.7,239.1,53.3,240.9,25.6"/>
	<path class="st3" d="M62.5,66.9c9.6-15,19.8-30.1,33.6-41.7c-1.8,27.2,3.4,54.3,9.1,80.7c-7.3,31-17.1,61.6-31.8,89.9
		c-6.9,12.7-14.9,25.5-26.9,33.9c-6.7,4.8-16.2,6.5-23.6,2.2c-7.7-4.3-11-13.4-12.1-21.7c-1-8.9-0.9-18,1-26.8
		C22.8,142.4,39.9,102.9,62.5,66.9"/>
	<path class="st4" d="M217.5,51.8c6.9-9.5,14.1-18.9,23.4-26.2c-1.8,27.6,3.6,55.1,9.5,81.9c-6.9,28.3-15.8,56.2-28.5,82.4
		c-6,11.9-12.8,23.6-22.1,33.2c-5.4,5.3-12,10.3-19.8,11.1c-7,0.8-13.7-2.4-18.8-7c-3.5-8.7-6-17.9-5.5-27.3
		c0.7-29.3,12.1-56.8,21.7-84c0.3-0.4,1.1-1.2,1.4-1.6c2.2-2.6,4.2-5.3,5.8-8.3C194.5,87.3,205.3,69.1,217.5,51.8"/>
</g>
</svg>
